<?xml version="1.0" encoding="utf-8"?>
<!-- Generator: Adobe Illustrator 19.1.0, SVG Export Plug-In . SVG Version: 6.00 Build 0)  -->
<svg version="1.1" id="Layer_1" xmlns="http://www.w3.org/2000/svg" xmlns:xlink="http://www.w3.org/1999/xlink" x="0px" y="0px" viewBox="-387 260.3 66 76" xml:space="preserve">

<g id="Artboard-Copy">
	<g id="Polygon-Copy">
		<path class="st0" d="M-354,335.8c-1.9,0-3.9-0.5-5.6-1.6l-22-13.1c-3.3-2-5.4-5.6-5.4-9.5v-26.8c0-3.9,2.1-7.5,5.4-9.5l22-13.1
			c3.5-2.1,7.8-2.1,11.3,0l22,13.1c3.3,2,5.4,5.6,5.4,9.5v26.8c0,3.9-2.1,7.5-5.4,9.5l-22,13.1C-350.1,335.3-352.1,335.8-354,335.8z
			 M-354,262.8c-1.6,0-3.2,0.4-4.6,1.3l-22,13.1c-2.7,1.6-4.4,4.6-4.4,7.7v26.8c0,3.2,1.7,6.1,4.4,7.7l22,13.1
			c2.8,1.7,6.4,1.7,9.2,0l22-13.1c2.7-1.6,4.4-4.6,4.4-7.7v-26.8c0-3.2-1.7-6.1-4.4-7.7l-22-13.1
			C-350.8,263.2-352.4,262.8-354,262.8z"/>
	</g>
</g>
</svg>
