<?xml version="1.0" encoding="iso-8859-1"?>
<!-- Generator: Adobe Illustrator 19.0.0, SVG Export Plug-In . SVG Version: 6.00 Build 0)  -->
<svg version="1.1" id="Capa_1" xmlns="http://www.w3.org/2000/svg" xmlns:xlink="http://www.w3.org/1999/xlink" x="0px" y="0px" viewBox="0 0 294 294" xml:space="preserve">
<g>
	<g>
		<path d="M169.8,162.4c-0.4-1.2-0.8-2.8-1.2-4c-0.4-1.2-1.2-2.4-2-3.2c-0.8-1.2-1.6-2-2.8-2.8s-2-2-3.2-2.8s-2.4-1.6-3.6-2.4
			s-2.8-1.6-4-2c-1.6-0.8-2.8-1.2-4.4-1.6c-0.8-0.4-1.6-0.4-2-0.8c-0.8-0.4-1.6-0.8-2-0.8c-0.8-0.4-1.2-0.8-2-1.2
			c-0.4-0.4-1.2-0.8-1.6-1.6c-0.4-0.4-0.8-1.2-1.2-2c-0.8-0.8-0.8-1.6-0.8-2.4s0-1.6,0-2.4s0.4-1.6,0.8-2c0.4-0.8,0.8-1.2,1.2-2
			c0.4-0.8,1.2-1.2,1.6-1.6c0.8-0.4,1.6-0.8,2.4-1.2c0.8-0.4,1.6-0.4,2.8-0.4c0.4,0,1.2,0,1.6,0c0.4,0,1.2,0,1.6,0
			c0.8,0,1.6,0,2.8,0.4c0.8,0,2,0.4,2.8,0.4s1.2,0.4,2,0.4c0.8,0.4,1.6,0.4,2,0.4l2.8,0.8l0.4-2.8l1.2-8.4l0.4-2l-2-0.8
			c-0.8-0.4-1.2-0.4-2-0.4c-0.4,0-1.2-0.4-2-0.4s-1.6-0.4-2.4-0.4s-1.6-0.4-2.4-0.4h-0.8v-7.2v-2.4H151h-7.2h-2.4v2.4v8h-0.8
			c-1.6,0.4-3.2,1.2-4.4,2c-1.2,0.8-2.8,1.6-4,2.8s-2.4,2.4-3.2,3.6c-0.8,1.2-1.6,2.8-2.4,4c-0.8,1.6-1.2,3.2-1.6,4.8
			c-0.4,1.6-0.4,3.2-0.4,5.2c0,1.2,0,2.8,0.4,4c0.4,1.2,0.8,2.8,1.2,4c0.4,1.2,1.2,2.4,2,3.2c0.8,1.2,1.6,2,2.8,2.8
			c1.2,0.8,2.4,1.6,3.2,2.4c1.2,0.8,2.4,1.6,4,2.4c1.6,0.8,2.8,1.2,4.4,2c1.6,0.8,2.8,1.2,4.4,1.6c0.8,0.4,1.6,0.4,2,0.8
			c0.8,0.4,1.2,0.8,2,1.2c0.8,0.4,1.2,0.8,1.6,1.2c0.4,0.4,0.8,0.8,1.2,1.6c0.4,0.4,0.8,1.2,0.8,2c0.4,0.8,0.4,1.6,0.4,2.4
			s0,1.6,0,2.4s-0.4,1.6-0.8,2c-0.4,0.8-0.8,1.2-1.6,1.6c-0.4,0.4-1.2,0.8-2,1.2c-0.8,0.4-1.2,0.8-2,0.8c-0.8,0.4-1.6,0.4-2.4,0.4
			s-1.2,0-2,0s-1.2,0-2,0s-2,0-2.8-0.4c-0.8,0-2-0.4-2.8-0.4c-1.2-0.4-2.4-0.4-3.2-0.8c-1.2-0.4-2.4-0.8-3.2-1.2
			c-0.4,0-0.8-0.4-1.2-0.4c-0.4-0.4-0.8-0.4-1.2-0.8l-3.2-1.6l-0.4,3.2L123,182l-0.4,1.6l1.6,0.8c1.2,0.4,2.4,1.2,3.6,1.6
			c1.2,0.4,2.4,0.8,3.6,1.2c1.2,0.4,2.4,0.8,4,0.8c1.2,0.4,2.8,0.4,4,0.8h0.8v7.6v2.8h2.4h8.4h2.4v-2.4v-8h0.8
			c1.6-0.4,3.2-1.2,4.8-2s2.8-1.6,4-2.8s2.4-2.4,3.2-3.6c0.8-1.2,1.6-2.8,2.4-4c0.8-1.6,1.2-3.2,1.6-4.8c0.4-1.6,0.4-3.2,0.4-4.8
			C170.2,165.2,170.2,164,169.8,162.4z"/>
	</g>
</g>
<g>
	<g>
		<path d="M147,77.6c-40.4,0-72.8,32.8-72.8,72.8s32.4,73.2,72.8,73.2c40.4,0,72.8-32.8,72.8-72.8C219.8,110.8,187.4,77.6,147,77.6z
			 M147,210.8c-33.2,0-60-26.8-60-60s26.8-60,60-60s60,26.8,60,60C207,184,180.2,210.8,147,210.8z"/>
	</g>
</g>
<g>
	<g>
		<path d="M261.8,28.4c-1.6-1.2-4-1.6-6-0.8c-12.8,5.2-25.2,7.6-37.2,7.6c-42,0-66.4-32-66.4-32.4C151,1.2,149,0,147,0
			s-4,0.8-5.2,2.8c-0.4,0.4-24.4,32.4-66.4,32.4c-12,0-24.4-2.4-37.2-7.6c-2-0.8-4.4-0.4-6,0.8c-1.6,1.2-2.8,3.2-2.8,5.2v132.8
			c0,46.4,36.4,106,116,127.2c0.4,0,1.2,0.4,1.6,0.4s1.2,0,1.6-0.4c79.6-21.2,116-80.8,116-127.2V33.6
			C264.6,31.6,263.4,29.6,261.8,28.4z M147,281.2C75,261.2,42.2,208,42.2,166.8v-124c11.2,3.6,22.4,5.6,32.8,5.6
			c37.2,0,61.6-20.8,71.6-31.6c10,10.8,34.4,31.6,71.6,31.6c10.8,0,22-2,32.8-5.6v124h0.8C251.8,208,219,261.2,147,281.2z"/>
	</g>
</g>
<g>
</g>
<g>
</g>
<g>
</g>
<g>
</g>
<g>
</g>
<g>
</g>
<g>
</g>
<g>
</g>
<g>
</g>
<g>
</g>
<g>
</g>
<g>
</g>
<g>
</g>
<g>
</g>
<g>
</g>
</svg>
