<?xml version="1.0" encoding="utf-8"?>
<!-- Generator: Adobe Illustrator 15.1.0, SVG Export Plug-In . SVG Version: 6.00 Build 0)  -->
<!DOCTYPE svg PUBLIC "-//W3C//DTD SVG 1.1//EN" "http://www.w3.org/Graphics/SVG/1.1/DTD/svg11.dtd">
<svg version="1.1" id="Слой_1" xmlns="http://www.w3.org/2000/svg" xmlns:xlink="http://www.w3.org/1999/xlink" x="0px" y="0px"
	 width="215px" height="56px" viewBox="0 0 215 56" enable-background="new 0 0 215 56" xml:space="preserve">
<g>
	<g>
		<path fill="#E2002B" stroke="#FFFFFF" stroke-width="0.25" stroke-miterlimit="10" d="M66.229,48.904
			c0,0.34-0.05,0.662-0.146,0.961c-0.097,0.301-0.247,0.564-0.448,0.791c-0.202,0.225-0.458,0.4-0.771,0.531
			c-0.312,0.129-0.685,0.193-1.119,0.193c-0.151,0-0.296-0.012-0.436-0.031c-0.14-0.02-0.27-0.053-0.393-0.09
			c-0.122-0.039-0.235-0.086-0.34-0.143c-0.105-0.057-0.202-0.119-0.29-0.189c0.011,0.117,0.021,0.242,0.026,0.369
			c0.006,0.129,0.008,0.258,0.008,0.381v1.93c0,0.031-0.007,0.059-0.023,0.082c-0.016,0.021-0.041,0.043-0.076,0.059
			c-0.035,0.016-0.082,0.027-0.146,0.033c-0.062,0.01-0.141,0.014-0.239,0.014c-0.092,0-0.17-0.004-0.233-0.014
			c-0.061-0.006-0.11-0.018-0.146-0.033c-0.038-0.016-0.063-0.037-0.077-0.059c-0.012-0.023-0.02-0.051-0.02-0.082v-7.99
			c0-0.395,0.055-0.746,0.163-1.055c0.109-0.309,0.262-0.568,0.459-0.781c0.199-0.209,0.437-0.371,0.716-0.482
			c0.279-0.113,0.587-0.17,0.925-0.17c0.356,0,0.665,0.055,0.927,0.158c0.262,0.109,0.478,0.254,0.646,0.434
			c0.169,0.184,0.293,0.391,0.373,0.623c0.08,0.232,0.119,0.477,0.119,0.729c0,0.41-0.092,0.77-0.276,1.078
			s-0.456,0.533-0.817,0.672c0.268,0.035,0.503,0.115,0.707,0.238c0.203,0.125,0.374,0.277,0.511,0.465
			c0.138,0.186,0.242,0.398,0.312,0.639C66.193,48.4,66.229,48.648,66.229,48.904z M65.204,48.979c0-0.229-0.028-0.438-0.084-0.631
			c-0.056-0.191-0.145-0.355-0.265-0.496c-0.121-0.141-0.277-0.248-0.473-0.326c-0.198-0.078-0.435-0.117-0.714-0.117h-0.5
			c-0.066,0-0.114-0.029-0.148-0.092c-0.033-0.061-0.05-0.162-0.05-0.303c0-0.07,0.004-0.129,0.015-0.182
			c0.01-0.049,0.022-0.09,0.039-0.121c0.015-0.029,0.035-0.055,0.059-0.07c0.022-0.014,0.05-0.021,0.08-0.021h0.116
			c0.256,0,0.474-0.041,0.655-0.121c0.181-0.078,0.327-0.184,0.439-0.318c0.112-0.135,0.193-0.289,0.244-0.463
			c0.049-0.174,0.075-0.355,0.075-0.547c0-0.166-0.02-0.326-0.059-0.479c-0.038-0.148-0.102-0.281-0.189-0.395
			c-0.086-0.111-0.201-0.201-0.346-0.266c-0.144-0.066-0.316-0.1-0.517-0.1c-0.213,0-0.398,0.037-0.558,0.117
			c-0.16,0.076-0.291,0.188-0.393,0.334c-0.104,0.145-0.18,0.32-0.233,0.527c-0.053,0.209-0.079,0.441-0.079,0.701v4.426
			c0.213,0.18,0.439,0.311,0.675,0.393c0.236,0.084,0.471,0.125,0.704,0.125c0.264,0,0.491-0.039,0.685-0.113
			c0.19-0.074,0.346-0.182,0.467-0.318c0.121-0.137,0.209-0.303,0.268-0.496C65.175,49.438,65.204,49.221,65.204,48.979z"/>
		<path fill="#E2002B" stroke="#FFFFFF" stroke-width="0.15" stroke-miterlimit="10" d="M68.048,48.572
			c0,1.287,0.608,2.025,1.727,2.025c0.679,0,1.073-0.201,1.536-0.666l0.584,0.51c-0.595,0.596-1.143,0.906-2.143,0.906
			c-1.549,0-2.56-0.928-2.56-3.002c0-1.893,0.916-2.998,2.405-2.998c1.513,0,2.405,1.094,2.405,2.834v0.391H68.048z M70.965,46.955
			c-0.226-0.537-0.75-0.883-1.369-0.883c-0.62,0-1.144,0.346-1.37,0.883c-0.132,0.32-0.156,0.498-0.179,0.975h3.095
			C71.12,47.453,71.097,47.275,70.965,46.955z"/>
		<path fill="#E2002B" stroke="#FFFFFF" stroke-width="0.15" stroke-miterlimit="10" d="M75.11,51.277c-1,0-1.5-0.705-1.5-1.574
			v-3.596h-0.738v-0.654h0.738v-1.834h0.856v1.834h1.251v0.654h-1.251v3.574c0,0.535,0.252,0.857,0.798,0.857h0.453v0.738H75.11z"/>
		<path fill="#E2002B" stroke="#FFFFFF" stroke-width="0.15" stroke-miterlimit="10" d="M80.447,51.277v-0.561
			c-0.477,0.477-0.907,0.631-1.69,0.631c-0.811,0-1.287-0.154-1.655-0.535c-0.287-0.285-0.441-0.727-0.441-1.191
			c0-1.023,0.715-1.691,2.024-1.691h1.763v-0.559c0-0.857-0.428-1.285-1.5-1.285c-0.751,0-1.131,0.178-1.477,0.666l-0.584-0.535
			c0.525-0.68,1.12-0.869,2.073-0.869c1.573,0,2.347,0.678,2.347,1.951v3.979H80.447z M80.447,48.572h-1.644
			c-0.881,0-1.31,0.359-1.31,1.037c0,0.68,0.417,1,1.346,1c0.5,0,0.94-0.037,1.311-0.393c0.201-0.191,0.297-0.525,0.297-1.012
			V48.572z"/>
		<path fill="#E2002B" stroke="#FFFFFF" stroke-width="0.15" stroke-miterlimit="10" d="M82.924,48.465v-0.797h3.263v0.797H82.924z"
			/>
		<path fill="#E2002B" stroke="#FFFFFF" stroke-width="0.15" stroke-miterlimit="10" d="M90.666,51.277h-2.787V45.42h2.716
			c1.035,0,1.727,0.605,1.727,1.535c0,0.631-0.333,1.07-0.929,1.285c0.631,0.238,1.025,0.701,1.025,1.416
			C92.417,50.656,91.761,51.277,90.666,51.277z M90.44,46.156h-1.715v1.75h1.715c0.678,0,1.036-0.32,1.036-0.879
			C91.476,46.465,91.106,46.156,90.44,46.156z M90.511,48.607h-1.787v1.932h1.787c0.666,0,1.059-0.381,1.059-0.965
			S91.177,48.607,90.511,48.607z"/>
		<path fill="#E2002B" stroke="#FFFFFF" stroke-width="0.15" stroke-miterlimit="10" d="M94.525,48.572
			c0.025,0.537,0.06,0.773,0.178,1.061c0.274,0.656,0.798,0.965,1.596,0.965c0.274,0,0.536-0.059,0.751-0.143
			c0.261-0.107,0.417-0.215,0.738-0.523l0.583,0.51c-0.428,0.418-0.631,0.563-0.988,0.703c-0.322,0.133-0.704,0.203-1.131,0.203
			c-1.691,0-2.583-1.045-2.583-3.035c0-1.848,0.917-2.965,2.405-2.965s2.405,1.08,2.405,2.834v0.391H94.525z M97.514,47.156
			c-0.203-0.678-0.75-1.084-1.441-1.084c-0.62,0-1.131,0.334-1.37,0.883c-0.119,0.262-0.153,0.451-0.178,0.975h3.096
			C97.598,47.479,97.585,47.371,97.514,47.156z"/>
		<path fill="#E2002B" stroke="#FFFFFF" stroke-width="0.15" stroke-miterlimit="10" d="M102.481,51.348
			c-0.358,0-0.667-0.059-0.942-0.189c-0.25-0.121-0.393-0.24-0.678-0.572v3.311h-0.857V45.42h0.857v0.688
			c0.274-0.32,0.417-0.439,0.666-0.57c0.263-0.131,0.572-0.189,0.942-0.189c1.513,0,2.191,0.939,2.191,3.012
			C104.661,50.396,103.97,51.348,102.481,51.348z M102.327,46.107c-1.025,0-1.465,0.68-1.465,2.238c0,1.574,0.44,2.24,1.477,2.24
			c1.024,0,1.466-0.666,1.466-2.227C103.804,46.764,103.375,46.107,102.327,46.107z"/>
		<path fill="#E2002B" stroke="#FFFFFF" stroke-width="0.15" stroke-miterlimit="10" d="M109.496,51.17
			c-0.286,0.119-0.605,0.178-0.987,0.178c-1.644,0-2.633-1.131-2.633-3.002c0-1.867,0.989-2.998,2.633-2.998
			c0.382,0,0.701,0.059,0.987,0.178c0.321,0.143,0.514,0.285,0.906,0.691l-0.585,0.547c-0.297-0.311-0.438-0.43-0.666-0.525
			c-0.19-0.082-0.405-0.131-0.655-0.131c-1.155,0-1.762,0.764-1.762,2.238c0,1.48,0.595,2.24,1.75,2.24
			c0.249,0,0.452-0.035,0.643-0.119c0.239-0.105,0.381-0.227,0.69-0.547l0.585,0.559C110.01,50.885,109.817,51.027,109.496,51.17z"
			/>
		<path fill="#E2002B" stroke="#FFFFFF" stroke-width="0.15" stroke-miterlimit="10" d="M115.605,51.277V46.74l-3.011,4.537h-0.846
			V45.42h0.846v4.512l3.011-4.512h0.858v5.857H115.605z"/>
		<path fill="#E2002B" stroke="#FFFFFF" stroke-width="0.15" stroke-miterlimit="10" d="M117.918,51.277l1.371-2.404
			c-0.834-0.168-1.371-0.813-1.371-1.705c0-1.049,0.739-1.748,1.847-1.748h2.667v5.857h-0.846v-2.299h-1.406l-1.272,2.299H117.918z
			 M121.586,46.119h-1.655c-0.75,0-1.167,0.395-1.167,1.084c0,0.68,0.417,1.072,1.167,1.072h1.655V46.119z"/>
	</g>
	<g>
		<path fill="#003871" d="M0.787,3.881c0-0.901,0.73-1.642,1.625-1.642h48.294c0.894,0,1.625,0.74,1.625,1.642v48.251
			c0,0.906-0.73,1.646-1.625,1.646H2.412c-0.896,0-1.625-0.74-1.625-1.646V3.881z"/>
		<path fill="#FFFFFF" d="M22.851,12.286c0.167,0,0.243-0.125,0.17-0.276l-0.368-0.775c-0.07-0.151-0.267-0.273-0.435-0.273H8.588
			c-0.166,0-0.243,0.122-0.172,0.273l0.369,0.775c0.072,0.151,0.268,0.276,0.435,0.276H22.851z"/>
		<path fill="#FFFFFF" d="M23.907,13.869c-0.07-0.15-0.267-0.275-0.432-0.275H9.844c-0.169,0-0.246,0.125-0.174,0.275l0.371,0.777
			c0.071,0.15,0.267,0.274,0.432,0.274h13.631c0.168,0,0.245-0.124,0.174-0.274L23.907,13.869z"/>
		<path fill="#FFFFFF" d="M25.167,16.514c-0.072-0.149-0.268-0.274-0.433-0.274h-13.63c-0.167,0-0.243,0.125-0.175,0.274
			l0.371,0.776c0.073,0.15,0.268,0.275,0.435,0.275h13.63c0.166,0,0.244-0.125,0.175-0.275L25.167,16.514z"/>
		<path fill="#FFFFFF" d="M26.429,19.162c-0.072-0.15-0.269-0.272-0.435-0.272H12.362c-0.167,0-0.245,0.122-0.172,0.272l0.373,0.776
			c0.069,0.15,0.264,0.274,0.431,0.274h13.631c0.166,0,0.244-0.125,0.172-0.274L26.429,19.162z"/>
		<path fill="#FFFFFF" d="M27.689,21.809c-0.074-0.151-0.267-0.272-0.436-0.272H13.624c-0.167,0-0.243,0.121-0.172,0.272
			l0.368,0.777c0.073,0.149,0.268,0.272,0.435,0.272h13.631c0.166,0,0.242-0.123,0.172-0.272L27.689,21.809z"/>
		<path fill="#FFFFFF" d="M28.948,24.457c-0.07-0.151-0.266-0.274-0.434-0.274H14.885c-0.168,0-0.244,0.124-0.173,0.274l0.371,0.778
			c0.072,0.149,0.265,0.27,0.433,0.27h13.632c0.167,0,0.245-0.121,0.169-0.27L28.948,24.457z"/>
		<path fill="#FFFFFF" d="M30.21,27.103c-0.07-0.149-0.266-0.274-0.433-0.274h-13.63c-0.17,0-0.246,0.125-0.173,0.274l0.367,0.774
			c0.074,0.151,0.27,0.275,0.436,0.275h13.629c0.168,0,0.245-0.124,0.175-0.275L30.21,27.103z"/>
		<path fill="#E2002B" d="M44.035,28.152c1.826,0,3.307-1.483,3.307-3.308c0-1.828-1.481-3.308-3.307-3.308
			c-1.828,0-3.308,1.479-3.308,3.308C40.727,26.669,42.208,28.152,44.035,28.152"/>
		<path fill="#FFFFFF" d="M26.308,9.637c0.168,0,0.306-0.136,0.306-0.304V8.614c0-0.167-0.137-0.302-0.306-0.302H5.159
			c-0.167,0-0.302,0.135-0.302,0.302v0.718c0,0.168,0.135,0.304,0.302,0.304H26.308z"/>
		<path fill="#FFFFFF" d="M17.28,29.474c-0.166,0-0.243,0.124-0.169,0.273l8.612,17.845c0.073,0.154,0.249,0.154,0.319,0
			l7.871-16.518c0.072-0.15,0.266-0.277,0.432-0.277H47.04c0.166,0,0.303-0.133,0.303-0.301v-0.719c0-0.168-0.137-0.304-0.303-0.304
			H17.28z"/>
		<path fill="#FFFFFF" d="M47.04,8.31H36.136c-0.168,0-0.303,0.138-0.303,0.305v0.718c0,0.167,0.135,0.301,0.303,0.301h1.617
			c0.402,0.027,2.725,0.038,1.839,2.749l-7.247,15.495c-0.07,0.151,0.007,0.275,0.173,0.275h2.479c0.168,0,0.364-0.124,0.435-0.272
			l7.827-16.363c0.358-0.737,0.789-1.238,1.289-1.494c0.503-0.256,1.159-0.391,2.01-0.391h0.482c0.166,0.001,0.303-0.133,0.303-0.3
			V8.614C47.342,8.447,47.205,8.31,47.04,8.31"/>
		<path fill="#003871" d="M100.533,18.726h-2.155c-0.099,0.008-0.176,0.086-0.183,0.183v4.816h-6.32v-4.818
			c-0.007-0.095-0.085-0.173-0.182-0.181h-2.156c-0.098,0.008-0.179,0.087-0.185,0.188v11.696c0.006,0.102,0.088,0.188,0.193,0.188
			h2.143c0.099,0,0.179-0.082,0.186-0.18v-4.935h6.32v4.933c0.006,0.1,0.087,0.182,0.188,0.182h2.142
			c0.104,0,0.185-0.086,0.192-0.188V18.916C100.711,18.816,100.634,18.734,100.533,18.726"/>
		<path fill="#003871" d="M69.749,28.531c-0.333,0.315-0.761,0.315-1.173,0.315l-3.83,0.001c-0.25,0-0.63,0.002-0.772-0.188
			c-0.018-0.028-0.07-0.103-0.07-0.614v-2.363h4.672c0.415,0,0.846,0.019,1.155,0.298c0.334,0.305,0.364,0.76,0.364,1.233v0.044
			C70.096,27.615,70.096,28.197,69.749,28.531 M72.028,24.64c-0.507-0.615-1.25-0.915-2.275-0.915h-5.849v-2.396
			c0-0.143,0-0.404,0.147-0.532c0.138-0.102,0.396-0.117,0.602-0.117h5.996c0.107-0.001,0.189-0.089,0.193-0.196v-1.56
			c-0.003-0.107-0.089-0.193-0.196-0.198h-7.488c-0.691,0-1.103,0.252-1.323,0.465c-0.41,0.407-0.455,0.967-0.455,1.354v8.589
			c0,0.35,0.041,0.805,0.359,1.16c0.306,0.336,0.744,0.502,1.312,0.502h6.74c1.261,0,1.92-0.504,2.199-0.809
			c0.463-0.508,0.7-1.425,0.7-2.726C72.688,26.043,72.472,25.195,72.028,24.64"/>
		<path fill="#003871" d="M78.398,25.682l1.94-4.726c0,0,0.147-0.411,0.332-0.411c0.198,0,0.339,0.411,0.339,0.411l1.942,4.726
			H78.398z M87.416,30.527l-0.004-0.018l-4.48-10.526c-0.475-1.031-1.099-1.393-2.261-1.393c-1.185,0-1.765,0.339-2.255,1.393
			l-4.479,10.522l-0.008,0.025c-0.009,0.021-0.017,0.045-0.017,0.066c0,0.111,0.089,0.199,0.199,0.199h2.042
			c0.082,0,0.147-0.043,0.179-0.111c0.004-0.004,0.008-0.012,0.009-0.02l1.252-3.032h6.165l1.251,3.038
			c0.002,0.004,0.005,0.01,0.005,0.01c0.033,0.072,0.098,0.115,0.178,0.115h2.041c0.113,0,0.201-0.088,0.201-0.199
			C87.432,30.57,87.426,30.551,87.416,30.527"/>
		<path fill="#003871" d="M114.697,30.465l-5.684-4.832c-0.267-0.231-0.771-0.664-0.771-1.022c0-0.249,0.307-0.554,0.633-0.859
			l5.178-4.694c0.032-0.036,0.053-0.08,0.053-0.131c0-0.107-0.083-0.192-0.188-0.201h-2.593c-0.038,0.004-0.076,0.017-0.108,0.04
			l-4.881,4.438c-0.212,0.202-0.359,0.396-0.465,0.578v-4.875c-0.009-0.095-0.086-0.173-0.185-0.181h-2.155
			c-0.099,0.009-0.176,0.087-0.182,0.188v11.696c0.006,0.102,0.083,0.184,0.182,0.188h2.155c0.099-0.004,0.176-0.082,0.185-0.18
			v-5.18c0.132,0.235,0.334,0.496,0.641,0.768l5.297,4.557c0.03,0.023,0.065,0.035,0.105,0.035h2.646
			c0.104,0,0.188-0.088,0.188-0.199C114.748,30.547,114.729,30.502,114.697,30.465"/>
		<path fill="#003871" d="M201.77,4.466c0-0.25,0-0.84-0.262-1.335c-0.313-0.592-0.896-0.892-1.733-0.892
			c-0.94,0-1.507,0.355-2.153,1.366l-5.035,7.814c-0.069,0.111-0.143,0.242-0.211,0.242c-0.044,0-0.063-0.018-0.072-0.025
			c-0.058-0.061-0.058-0.23-0.058-0.381l0.007-8.836c-0.008-0.097-0.087-0.173-0.186-0.179h-2.154
			c-0.1,0.006-0.18,0.086-0.186,0.188v9.757c0,0.636,0,2.125,1.921,2.125c1.303,0,1.697-0.611,2.045-1.15
			c0.006-0.013,5.16-7.923,5.16-7.923c0.101-0.162,0.229-0.364,0.302-0.364c0.043,0,0.094,0.035,0.094,0.306l-0.005,8.945
			c0.007,0.097,0.086,0.179,0.187,0.186h2.153c0.1-0.007,0.178-0.084,0.187-0.182V4.466z"/>
		<path fill="#003871" d="M69.741,11.959c-0.344,0.398-0.996,0.398-1.308,0.398h-3.748c-0.177,0.002-0.509,0.002-0.667-0.163
			c-0.078-0.089-0.116-0.306-0.116-0.639V9.191h4.69c0.736,0,1.067,0.289,1.199,0.46c0.161,0.228,0.25,0.63,0.25,1.158
			C70.042,11.177,69.988,11.676,69.741,11.959 M63.903,7.237V4.771c0-0.212,0.046-0.372,0.136-0.47
			c0.104-0.111,0.25-0.111,0.417-0.108h3.904c0.388,0,0.788,0,1.102,0.284c0.341,0.308,0.383,0.809,0.383,1.213
			c0,0.755-0.155,1.043-0.245,1.152c-0.303,0.394-0.767,0.394-1.223,0.394H63.903z M72.023,8.778
			c-0.283-0.301-0.684-0.509-1.125-0.604c0.356-0.083,0.647-0.264,0.932-0.591c0.564-0.639,0.607-1.311,0.607-1.997
			c0-0.781-0.083-1.897-0.809-2.61C70.96,2.322,70.036,2.24,69.307,2.24h-6.132c-0.614,0-1.081,0.175-1.384,0.518
			c-0.258,0.3-0.412,0.778-0.412,1.281v8.502c0,0.674,0.281,1.082,0.452,1.267c0.471,0.517,1.013,0.502,1.568,0.502h6.158
			c0.789,0,1.605,0,2.344-0.789c0.735-0.791,0.735-1.772,0.735-2.56C72.635,10.31,72.635,9.416,72.023,8.778"/>
		<path fill="#003871" d="M77.808,5.031c0.822-0.975,2.144-0.975,3.106-0.975c1.175,0,2.384,0.077,3.126,0.975
			c0.522,0.625,0.764,1.658,0.764,3.243c0,1.548-0.25,2.606-0.764,3.229c-0.807,0.989-2.2,0.989-3.126,0.989
			c-1.493,0-2.431-0.155-3.105-0.988h-0.001c-0.54-0.66-0.782-1.656-0.782-3.23C77.026,6.654,77.258,5.684,77.808,5.031
			 M85.963,3.386V3.381c-1.377-1.278-3.575-1.278-5.028-1.278c-1.528,0-3.618,0-5.032,1.278c-1.358,1.228-1.471,3.169-1.471,4.894
			c0,1.323,0,3.541,1.471,4.892c1.397,1.28,3.584,1.28,5.032,1.28c1.459,0,3.669,0,5.028-1.28c1.436-1.352,1.436-3.831,1.436-4.892
			C87.399,6.625,87.235,4.582,85.963,3.386"/>
		<path fill="#003871" d="M118.587,5.031c0.821-0.975,2.141-0.975,3.107-0.975c1.173,0,2.384,0.077,3.124,0.975
			c0.521,0.625,0.764,1.658,0.764,3.243c0,1.548-0.25,2.606-0.764,3.229c-0.805,0.989-2.2,0.989-3.124,0.989
			c-1.495,0-2.434-0.155-3.106-0.988c-0.544-0.66-0.783-1.656-0.783-3.23C117.805,6.654,118.037,5.684,118.587,5.031 M126.741,3.386
			V3.381c-1.378-1.278-3.575-1.278-5.03-1.278c-1.525,0-3.613,0-5.03,1.278c-1.356,1.228-1.472,3.169-1.472,4.894
			c0,1.323,0,3.541,1.472,4.892c1.399,1.28,3.583,1.28,5.03,1.28c1.464,0,3.67,0,5.03-1.28c1.438-1.352,1.438-3.831,1.438-4.892
			C128.179,6.625,128.013,4.582,126.741,3.386"/>
		<path fill="#003871" d="M173.347,12.358h-6.558c-0.321,0-0.618-0.012-0.741-0.131c-0.093-0.073-0.154-0.236-0.154-0.395V9.191
			h6.048c0.106-0.003,0.188-0.089,0.193-0.196V7.434c-0.005-0.108-0.089-0.194-0.198-0.197h-6.043V4.855
			c0-0.164,0-0.368,0.168-0.513c0.152-0.132,0.372-0.149,0.585-0.149h6.631c0.104-0.006,0.19-0.089,0.192-0.195V2.434
			c-0.002-0.106-0.089-0.194-0.197-0.194h-7.893c-0.566,0-1.146,0.056-1.555,0.485c-0.28,0.3-0.454,0.8-0.454,1.3v8.434
			c0,0.524,0.059,1.065,0.491,1.458c0.434,0.395,0.942,0.395,1.483,0.395h8.004c0.104-0.004,0.189-0.088,0.19-0.192v-1.563
			C173.539,12.448,173.452,12.36,173.347,12.358"/>
		<path fill="#003871" d="M214.081,12.358h-6.555c-0.322,0-0.622-0.012-0.746-0.131c-0.09-0.073-0.152-0.236-0.152-0.395V9.191
			h6.048c0.107-0.003,0.191-0.089,0.193-0.196V7.434c-0.002-0.108-0.088-0.194-0.196-0.197h-6.045V4.855c0-0.164,0-0.368,0.17-0.513
			c0.151-0.132,0.37-0.149,0.584-0.149h6.631c0.104-0.006,0.19-0.089,0.19-0.195V2.434c0-0.106-0.086-0.194-0.194-0.194h-7.895
			c-0.564,0-1.145,0.056-1.557,0.485c-0.278,0.3-0.452,0.8-0.452,1.3v8.434c0,0.524,0.059,1.065,0.492,1.458
			c0.436,0.395,0.942,0.395,1.483,0.395h8.002c0.106-0.004,0.19-0.088,0.192-0.192v-1.563
			C214.273,12.448,214.186,12.36,214.081,12.358"/>
		<path fill="#003871" d="M187.09,2.24h-2.151c-0.1,0.006-0.177,0.084-0.186,0.182v4.812h-6.319V2.419
			c-0.008-0.097-0.085-0.173-0.183-0.179h-2.154c-0.101,0.006-0.18,0.086-0.186,0.188v11.694c0.006,0.1,0.089,0.182,0.191,0.188
			h2.144c0.1-0.006,0.18-0.084,0.188-0.182V9.191h6.319v4.936c0.009,0.099,0.089,0.177,0.189,0.184h2.144
			c0.103-0.006,0.185-0.088,0.191-0.188V2.43C187.271,2.328,187.191,2.246,187.09,2.24"/>
		<path fill="#003871" d="M110.328,7.725c-0.384,0.416-0.962,0.416-1.472,0.416h-4.389V4.822c0-0.2,0-0.372,0.134-0.5
			c0.138-0.131,0.306-0.131,0.454-0.128h3.836c0.324,0,1.002,0,1.402,0.384c0.375,0.375,0.419,1.079,0.419,1.573
			C110.714,6.435,110.714,7.305,110.328,7.725 M112.338,2.974c-0.793-0.734-1.886-0.734-2.535-0.734h-5.935
			c-0.648,0-1.128,0.156-1.469,0.48c-0.451,0.434-0.451,0.94-0.451,1.387v7.117h-0.003v2.901c0.006,0.097,0.085,0.179,0.186,0.186
			h2.153c0.098-0.007,0.175-0.084,0.184-0.182v-2.152h-0.001v-1.883h5.763c0.742,0,1.474-0.224,1.958-0.595
			c0.756-0.587,1.12-1.68,1.12-3.334C113.309,5.093,113.198,3.761,112.338,2.974"/>
		<path fill="#003871" d="M146.343,13.978l-4.892-4.83c-0.288-0.275-0.631-0.684-0.631-1.062c0-0.319,0.246-0.575,0.492-0.827
			l4.414-4.7c0.024-0.036,0.042-0.075,0.042-0.121c0-0.105-0.08-0.191-0.181-0.199h-2.58c-0.041,0.003-0.081,0.021-0.111,0.048
			c-0.009,0.01-3.903,4.401-3.903,4.401c-0.173,0.201-0.316,0.398-0.417,0.585V2.419c-0.011-0.097-0.089-0.173-0.189-0.179h-2.153
			c-0.097,0.006-0.177,0.086-0.184,0.188v4.848c-0.105-0.188-0.244-0.386-0.421-0.587c0,0-3.893-4.392-3.904-4.401
			c-0.03-0.028-0.067-0.045-0.109-0.048h-2.581c-0.101,0.008-0.179,0.094-0.179,0.199c0,0.046,0.015,0.085,0.043,0.121l4.412,4.7
			c0.241,0.251,0.495,0.507,0.495,0.827c0,0.377-0.343,0.786-0.636,1.062l-4.888,4.83c-0.033,0.035-0.053,0.08-0.053,0.133
			c0,0.105,0.082,0.192,0.188,0.199h2.692c0.045-0.004,0.086-0.021,0.117-0.047l0.03-0.034l4.192-4.484
			c0.284-0.304,0.474-0.576,0.601-0.813v5.193c0.007,0.097,0.087,0.179,0.184,0.186h2.153c0.101-0.007,0.179-0.084,0.189-0.182
			V8.932c0.123,0.237,0.314,0.513,0.598,0.813l4.191,4.484l0.03,0.034c0.035,0.027,0.072,0.043,0.12,0.047h2.689
			c0.105-0.007,0.188-0.094,0.188-0.199C146.394,14.058,146.375,14.013,146.343,13.978"/>
		<path fill="#003871" d="M154.313,4.466c0,0,0.145-0.41,0.328-0.41c0.191,0,0.333,0.41,0.333,0.41l3.181,7.892h-7.025
			L154.313,4.466z M161.536,12.358h-0.983l-3.693-8.863c-0.468-1.026-1.081-1.392-2.218-1.392c-1.162,0-1.732,0.336-2.211,1.392
			l-3.699,8.863h-0.98c-0.108,0.002-0.198,0.092-0.198,0.199v1.558c0.001,0.105,0.088,0.189,0.192,0.196h13.795
			c0.106-0.006,0.191-0.091,0.193-0.196v-1.56C161.731,12.448,161.644,12.36,161.536,12.358"/>
		<path fill="#003871" d="M98.987,8.778c-0.282-0.301-0.683-0.509-1.127-0.604c0.359-0.083,0.649-0.264,0.933-0.591
			C99.355,6.944,99.4,6.272,99.4,5.586c0-0.781-0.083-1.897-0.809-2.61c-0.668-0.654-1.593-0.736-2.323-0.736h-6.826
			c-0.105,0-0.192,0.088-0.192,0.194v1.562c0,0.107,0.083,0.191,0.189,0.197h5.883c0.386,0,0.786,0,1.102,0.284
			c0.339,0.308,0.38,0.809,0.38,1.213c0,0.755-0.155,1.043-0.245,1.152c-0.299,0.391-0.768,0.391-1.219,0.391h-4.559
			c-0.108,0.006-0.193,0.093-0.198,0.2v1.561c0.005,0.107,0.087,0.193,0.192,0.196h4.778c0.737,0,1.065,0.292,1.198,0.46
			c0.163,0.229,0.249,0.63,0.249,1.158c0,0.368-0.052,0.867-0.299,1.15c-0.346,0.398-0.996,0.398-1.31,0.398h-6.02
			c-0.106,0.002-0.193,0.09-0.193,0.197v1.56c0,0.105,0.085,0.189,0.189,0.196h7.147c0.787,0,1.605,0,2.343-0.789
			c0.736-0.794,0.736-1.772,0.736-2.56C99.598,10.31,99.598,9.416,98.987,8.778"/>
	</g>
</g>
</svg>
